<svg width="99" height="99" viewBox="0 0 99 99" fill="none" xmlns="http://www.w3.org/2000/svg">
  <path d="M41.5333 48.949C41.1658 48.949 40.7957 48.8199 40.5003 48.5571C39.8566 47.9865 39.797 47.002 40.3678 46.3583C45.6923 40.3536 40.6476 33.6236 40.4298 33.34C39.9552 32.7195 40.0124 31.8434 40.5648 31.2911L54.9885 16.8663C55.597 16.2578 56.5824 16.2578 57.1909 16.8663C57.7994 17.4747 57.7994 18.4602 57.1909 19.0686L43.6762 32.5847C45.8312 36.1499 47.7087 42.7751 42.6991 48.4247C42.391 48.7714 41.9629 48.949 41.5333 48.949Z" fill="#189DD9" />
  <path d="M42.334 86.3757C41.9348 86.3757 41.537 86.2236 41.2327 85.9195C40.6243 85.311 40.6243 84.3254 41.2327 83.7169L46.5318 78.419C50.3742 74.5753 54.762 71.3423 59.573 68.8115L62.8353 67.0934C64.7846 66.0688 66.5634 64.7584 68.1235 63.1984L83.596 47.7259C84.2044 47.1174 85.1899 47.1174 85.7984 47.7259C86.4068 48.3343 86.4068 49.3198 85.7984 49.9282L70.3258 65.4007C68.5444 67.1821 66.5124 68.6786 64.2858 69.8506L61.0236 71.5686C56.49 73.9535 52.3554 76.9992 48.7341 80.6216L43.4351 85.9195C43.1309 86.2236 42.7332 86.3757 42.334 86.3757Z" fill="#189DD9" />
  <path d="M15.7863 59.8283C15.3877 59.8283 14.9894 59.6762 14.685 59.3719C14.0766 58.7634 14.0766 57.778 14.685 57.1695L25.1761 46.6797L25.636 33.7917C25.7954 29.32 27.6253 25.1147 30.7902 21.9501L45.1836 7.55785C48.3435 4.3954 53.3786 4.06454 56.6456 6.80961C58.4355 8.31223 59.5184 10.5061 59.6182 12.8276C59.7191 15.1517 58.8345 17.4258 57.1907 19.0684C56.5811 19.6768 55.5954 19.6768 54.9883 19.0684C54.3799 18.4599 54.3799 17.4731 54.9883 16.866C56.0165 15.8378 56.569 14.4154 56.5068 12.9627C56.4434 11.4889 55.7805 10.1507 54.6426 9.19432C52.5997 7.47865 49.4154 7.72952 47.3857 9.76001L32.9925 24.152C30.3872 26.7571 28.8799 30.2201 28.7484 33.9033L28.2665 47.4036C28.2532 47.7966 28.09 48.17 27.8115 48.4486L16.8874 59.3719C16.5833 59.676 16.1849 59.8283 15.7863 59.8283Z" fill="#189DD9" />
  <path d="M53.5976 34.7042C51.854 34.7042 50.109 34.0397 48.7805 32.7109C46.1243 30.0548 46.1243 25.7314 48.7805 23.0755L58.1813 13.6746C60.8375 11.0184 65.1582 11.0159 67.8168 13.6746C70.4729 16.3308 70.4729 20.6539 67.8168 23.3101L58.4159 32.7109C57.0873 34.0397 55.3424 34.7042 53.5976 34.7042ZM62.9984 14.7939C62.0116 14.7939 61.082 15.1784 60.3835 15.877L50.9826 25.2778C50.2843 25.9762 49.8998 26.9058 49.8998 27.8938C49.8998 28.8806 50.2845 29.8102 50.9826 30.5088C52.3795 31.9057 54.8167 31.9043 56.2136 30.5088L65.6144 21.1079C66.313 20.4094 66.6973 19.4798 66.6973 18.4929C66.6973 17.5051 66.3128 16.5753 65.6144 15.877C64.9161 15.1784 63.9863 14.7939 62.9984 14.7939Z" fill="#189DD9" />
  <path d="M59.5621 43.6061C57.8162 43.6061 56.0724 42.9416 54.7438 41.6129C53.4564 40.3268 52.7482 38.6159 52.7482 36.7957C52.7482 34.9755 53.4564 33.2648 54.7438 31.9774L67.0832 19.6392C69.7405 16.9793 74.0639 16.9842 76.7186 19.6392C79.3748 22.2954 79.3748 26.6187 76.7186 29.2749L64.3793 41.6129C63.0519 42.9416 61.3057 43.6061 59.5621 43.6061ZM71.9003 20.7587C70.9135 20.7587 69.9839 21.1432 69.2853 21.8416L56.946 34.1797C56.2476 34.8781 55.8629 35.8079 55.8629 36.7957C55.8629 37.7837 56.2476 38.7122 56.946 39.4107C58.3415 40.8076 60.78 40.8088 62.1769 39.4107L74.5163 27.0725C75.2148 26.3742 75.5991 25.4446 75.5991 24.4577C75.5991 23.4697 75.2146 22.5401 74.5163 21.8416C73.8179 21.1432 72.8883 20.7587 71.9003 20.7587Z" fill="#189DD9" />
  <path d="M68.4641 49.5707C66.7205 49.5707 64.9757 48.9064 63.6469 47.5776C60.9907 44.9215 60.9907 40.5981 63.6469 37.942L73.0478 28.5411C75.7039 25.8849 80.0249 25.8826 82.6834 28.5411C85.3396 31.1973 85.3396 35.5206 82.6834 38.1768L73.2826 47.5776C71.954 48.9064 70.209 49.5707 68.4641 49.5707ZM77.8649 29.6608C76.8781 29.6608 75.9485 30.0453 75.2501 30.7437L65.8493 40.1445C65.1507 40.8431 64.7662 41.7727 64.7662 42.7607C64.7662 43.7475 65.1507 44.6771 65.8493 45.3755C67.2471 46.7724 69.6833 46.7712 71.0802 45.3755L80.4811 35.9746C81.1794 35.2763 81.5639 34.3467 81.5639 33.3598C81.5639 32.3718 81.1794 31.4422 80.4811 30.7437C79.7825 30.0451 78.8529 29.6608 77.8649 29.6608Z" fill="#189DD9" />
  <path d="M77.1824 55.7191C75.4388 55.7191 73.694 55.0548 72.3652 53.7259C69.7091 51.0697 69.7091 46.7466 72.3652 44.0904L77.236 39.2196C79.8922 36.5634 84.2132 36.561 86.8717 39.2196C89.5279 41.8758 89.5279 46.1989 86.8717 48.8551L82.0009 53.7259C80.6721 55.0548 78.9272 55.7191 77.1824 55.7191ZM82.0544 40.3403C81.1065 40.3403 80.1597 40.7016 79.4384 41.4219L74.5676 46.2927C73.1256 47.7346 73.1256 50.0819 74.5676 51.5237C76.0106 52.9643 78.3553 52.9632 79.7986 51.5237L84.6692 46.6529C86.1112 45.2111 86.1112 42.8638 84.6692 41.4219C83.9476 40.7016 83.001 40.3403 82.0544 40.3403Z" fill="#189DD9" />
  <path d="M23.0468 94.0501C22.6476 94.0501 22.2499 93.898 21.9455 93.5937C21.3371 92.9852 21.3371 91.9998 21.9455 91.3913L42.2172 71.1197C42.8256 70.5112 43.8111 70.5112 44.4195 71.1197C45.028 71.7281 45.028 72.7138 44.4195 73.322L24.1481 93.5937C23.844 93.898 23.446 94.0501 23.0468 94.0501Z" fill="#189DD9" />
  <path d="M26.6314 77.5093C26.2322 77.5093 25.8344 77.3572 25.5303 77.0529C24.9219 76.4444 24.9219 75.4588 25.5303 74.8503L32.1605 68.2215C32.769 67.613 33.7544 67.613 34.3629 68.2215C34.9714 68.8299 34.9714 69.8154 34.3629 70.4238L27.7327 77.0529C27.4283 77.357 27.0306 77.5093 26.6314 77.5093Z" fill="#189DD9" />
  <path d="M12.3295 77.0747C11.9309 77.0747 11.5325 76.9226 11.2284 76.6185C10.6199 76.01 10.6199 75.0244 11.2284 74.4159L29.778 55.8649C30.3865 55.2565 31.3719 55.2565 31.9804 55.8649C32.5888 56.4734 32.5888 57.459 31.9804 58.0675L13.4307 76.6185C13.1264 76.9226 12.728 77.0747 12.3295 77.0747Z" fill="#189DD9" />
  <path d="M11.6935 52.8329C11.2951 52.8329 10.8967 52.6809 10.5924 52.3765C9.98393 51.7681 9.98393 50.7824 10.5924 50.174L15.4624 45.3044C16.0708 44.6959 17.0565 44.6959 17.6649 45.3044C18.2734 45.9128 18.2734 46.8985 17.6649 47.5069L12.7947 52.3767C12.4906 52.6809 12.092 52.8329 11.6935 52.8329Z" fill="#189DD9" />
  <path d="M46.7848 91.081C46.3856 91.081 45.9876 90.9289 45.6835 90.6246C45.0751 90.0162 45.0751 89.0307 45.6835 88.4223L50.6066 83.4992C51.215 82.8907 52.2007 82.8907 52.8091 83.4992C53.4176 84.1076 53.4176 85.0931 52.8091 85.7015L47.8861 90.6246C47.5819 90.9289 47.184 91.081 46.7848 91.081Z" fill="#189DD9" />
</svg>