<svg width="80" height="80" viewBox="0 0 80 80" fill="none" xmlns="http://www.w3.org/2000/svg">
  <path d="M39.6827 36.7823L23.6355 42.3654C23.2275 42.5032 22.9547 42.8845 22.9502 43.3138V49.3743C22.936 50.7396 24.992 50.7396 24.9742 49.3743V44.0312L40.0107 38.8001L55.0578 44.0312V49.3743C54.9973 50.7769 57.136 50.7769 57.072 49.3743V43.3138C57.072 42.8881 56.8027 42.5032 56.3947 42.3654L40.3493 36.7823C40.0711 36.6854 39.9547 36.6889 39.6827 36.7823Z" fill="white" />
  <path fill-rule="evenodd" clip-rule="evenodd" d="M37.6854 7.04525C43.0791 5.76792 48.4685 9.05503 49.76 14.3884C51.0463 19.7217 47.7378 25.0595 42.3431 26.3324C36.9458 27.6052 31.5565 24.3226 30.2685 18.9892C28.9778 13.6559 32.288 8.31991 37.6854 7.04525ZM37.2134 5.08791C30.7654 6.61058 26.76 13.0506 28.3067 19.4532C29.8516 25.8559 36.3654 29.8141 42.8151 28.2915C49.2649 26.7688 53.2649 20.3279 51.7183 13.9252C50.1716 7.52347 43.6578 3.56436 37.2134 5.08791Z" fill="white" />
  <path d="M29.8489 33.2213H50.1769C52.88 33.2213 54.6267 33.6942 56.0604 34.7395C57.496 35.7857 58.696 37.5128 60.0098 40.2257L66.1395 52.8835C66.9902 54.6391 67.1849 55.976 66.9067 56.9155C66.6284 57.8604 65.8844 58.6346 64.2311 59.272L57.76 61.7866C56.696 62.2026 55.8987 62.0933 55.232 61.736C54.5707 61.3795 54.0427 60.7173 53.7653 59.9253C53.2098 58.3386 53.5573 56.4444 55.7271 55.5137C57.6542 54.6853 61.0098 53.3244 61.0098 53.3244C62.3902 52.8844 61.5511 50.8151 60.2542 51.4586C60.2542 51.4586 56.9031 52.8195 54.9316 53.6666C51.8569 54.9866 51.0098 58.1671 51.8622 60.5928C51.9733 60.9164 52.1209 61.2275 52.288 61.5235C49.7138 66.4444 45.408 70.1013 40.0098 73.0462C34.6124 70.1013 30.3102 66.4444 27.7316 61.5235C27.9031 61.2275 28.0462 60.9164 28.1618 60.5928C29.0142 58.1671 28.1671 54.9866 25.0871 53.6666C23.12 52.8195 19.768 51.4586 19.768 51.4586C18.4676 50.8151 17.6293 52.8844 19.0142 53.3244C19.0142 53.3244 22.3653 54.6862 24.2951 55.5137C26.4622 56.4444 26.8142 58.3386 26.2587 59.9253C25.9804 60.7173 25.448 61.3795 24.7867 61.736C24.1253 62.0933 23.3236 62.2026 22.2587 61.7866L15.792 59.2728C14.1396 58.6346 13.3929 57.8604 13.1147 56.9164C12.8338 55.976 13.0311 54.6391 13.8782 52.8844L20.0169 40.2266C21.328 37.5137 22.5271 35.7866 23.9618 34.7404C25.3991 33.6942 27.144 33.2213 29.8489 33.2213ZM29.8489 31.2124C26.904 31.2124 24.6267 31.7537 22.7742 33.1066C20.9218 34.4577 19.5742 36.5084 18.2 39.3466L12.0711 52.0044C11.1022 54.0035 10.6907 55.8417 11.1769 57.4906C11.6684 59.1386 13.0604 60.3786 15.0658 61.1573L21.5324 63.6711C23.0702 64.2684 24.5707 64.1431 25.7404 63.5129C25.9404 63.4062 26.1298 63.2773 26.3102 63.1422C29.2409 68.3271 33.8933 72.1662 39.5378 75.152C39.8347 75.3093 40.1902 75.3093 40.4827 75.152C46.1271 72.1662 50.7831 68.3271 53.7102 63.1422C53.8942 63.2773 54.08 63.4071 54.2836 63.5129C55.4507 64.1422 56.9556 64.2684 58.4916 63.6711L64.9636 61.1573C66.9689 60.3786 68.3573 59.1377 68.8435 57.4906C69.3298 55.8426 68.9271 54.0035 67.9547 52.0044L61.8249 39.3466C60.4498 36.5093 59.0996 34.4577 57.2471 33.1066C55.4 31.7546 53.1218 31.2124 50.1778 31.2124H29.8489Z" fill="white" />
  <path fill-rule="evenodd" clip-rule="evenodd" d="M48.488 51.6569L38.0569 62.1804C37.9875 62.2498 37.904 62.2498 37.8347 62.1804L31.5431 55.888L33.496 53.888L37.2409 57.6427C37.6347 58.032 38.2738 58.032 38.6675 57.6427L46.4071 49.8978L48.488 51.6569ZM46.488 47.7733C45.8489 47.8418 45.3351 48.1244 44.9911 48.4675L37.96 55.4995L34.9271 52.4711C34.0987 51.6329 32.696 51.6329 31.8667 52.4711L30.1129 54.2533C29.2791 55.0915 29.2791 56.4675 30.1129 57.3058L36.4187 63.6107C37.3804 64.5733 38.5155 64.5831 39.4747 63.6195L49.9191 53.0782C50.7804 52.208 50.6035 50.7724 49.9084 50.0364L48.1831 48.328C47.6907 47.8471 47.0436 47.7129 46.488 47.7733Z" fill="white" />
</svg>