<svg viewBox="0 0 99 99" fill="none" xmlns="http://www.w3.org/2000/svg"><path d="M47.92 94.05c-5.072 0-11.554-1.131-18.01-5.383C15.356 79.081 7 57.82 5.07 25.474a1.583 1.583 0 012.079-1.595c30.742 10.24 49.113 23.818 54.603 40.358 5.093 15.344-3.033 27.272-3.38 27.773a1.585 1.585 0 01-.762.584c-.3.107-4.154 1.456-9.69 1.456zM8.382 27.64c2.113 29.93 9.921 49.558 23.222 58.353C42.406 93.137 53.6 90.48 56.048 89.77c1.318-2.176 6.786-12.303 2.683-24.589C53.68 50.055 36.744 37.431 8.38 27.64z" fill="#189DD9"/><path d="M57.074 92.688c-.475 0-.945-.213-1.257-.62L5.394 26.343a1.583 1.583 0 112.51-1.926l50.424 65.725a1.582 1.582 0 01-1.254 2.546z" fill="#189DD9"/><path d="M48.529 81.549a1.583 1.583 0 01-1.563-1.843l1.9-11.386a1.592 1.592 0 011.82-1.3c.863.144 1.445.959 1.301 1.822l-1.9 11.385c-.129.774-.799 1.322-1.558 1.322zM35.82 64.985a1.582 1.582 0 01-1.57-1.789l1.717-13.033a1.577 1.577 0 011.776-1.363 1.582 1.582 0 011.362 1.776l-1.717 13.033a1.584 1.584 0 01-1.567 1.376zM22.767 47.968a1.582 1.582 0 01-1.57-1.789l.918-6.978c.114-.866.914-1.486 1.775-1.363a1.582 1.582 0 011.363 1.776l-.92 6.978a1.583 1.583 0 01-1.566 1.376zM51.763 85.764c-.051 0-.102-.002-.154-.007L40.12 84.643a1.582 1.582 0 11.306-3.15l11.488 1.114a1.583 1.583 0 01-.15 3.157zM39.056 69.2c-.07 0-.139-.003-.209-.013l-13.033-1.718a1.582 1.582 0 11.413-3.138L39.26 66.05a1.582 1.582 0 01-.204 3.151zM26.001 52.185c-.068 0-.138-.003-.208-.013l-6.98-.92a1.582 1.582 0 01-1.362-1.775c.114-.866.91-1.488 1.775-1.363l6.98.92A1.582 1.582 0 0126 52.185zM64.552 93.175a1.583 1.583 0 01-.174-3.155C74.42 88.9 91.02 80.613 90.767 38.1c-12.128 5.347-21.48 11.254-27.823 17.574a1.582 1.582 0 11-2.234-2.242c7.004-6.98 17.43-13.434 30.99-19.184a1.583 1.583 0 012.2 1.424c.943 47.088-17.872 56.233-29.171 57.493-.06.006-.119.01-.177.01z" fill="#189DD9"/><path d="M67.333 75.855a1.583 1.583 0 01-1.327-2.443L90.99 34.845a1.582 1.582 0 112.657 1.72l-24.983 38.57a1.581 1.581 0 01-1.33.721zM67.878 82.4a1.583 1.583 0 01-.276-3.14l3.66-.651c.86-.16 1.682.42 1.835 1.28.153.861-.42 1.682-1.28 1.835l-3.66.652a1.554 1.554 0 01-.28.024z" fill="#189DD9"/><path d="M71.526 69.382a1.582 1.582 0 01-.329-3.13l10.258-2.193a1.582 1.582 0 01.661 3.096L71.86 69.346a1.585 1.585 0 01-.333.035zM80.83 55.019a1.582 1.582 0 01-.329-3.13l5.494-1.175a1.583 1.583 0 01.661 3.096l-5.494 1.174a1.588 1.588 0 01-.332.035z" fill="#189DD9"/><path d="M69.221 72.94c-.73 0-1.387-.508-1.545-1.25l-2.194-10.258a1.582 1.582 0 113.095-.663l2.193 10.257a1.583 1.583 0 01-1.549 1.914zM78.525 58.577c-.73 0-1.387-.508-1.546-1.251l-1.174-5.493a1.583 1.583 0 013.094-.663l1.175 5.493a1.583 1.583 0 01-1.55 1.914zM72.424 47.675c-.726 0-1.38-.502-1.544-1.24-2.432-10.95-9.687-23.418-21.576-37.079-4.31 8.967-7.394 17.284-9.176 24.75a1.583 1.583 0 01-3.079-.734c1.977-8.285 5.495-17.552 10.456-27.544a1.583 1.583 0 011.206-.866 1.598 1.598 0 011.392.516C63.285 20.242 71.314 33.792 73.97 45.75a1.583 1.583 0 01-1.545 1.925z" fill="#189DD9"/><path d="M54.165 47.021c-.78 0-1.46-.576-1.567-1.37L47.355 6.742a1.583 1.583 0 011.357-1.78c.864-.103 1.662.49 1.78 1.357l5.243 38.907a1.583 1.583 0 01-1.57 1.794zM58.601 44.93a1.582 1.582 0 01-1.257-2.542l3.052-4.002a1.581 1.581 0 112.517 1.918l-3.052 4.003a1.582 1.582 0 01-1.26.624z" fill="#189DD9"/><path d="M52.054 31.359a1.582 1.582 0 01-1.257-2.542l3.781-4.959a1.582 1.582 0 112.517 1.919l-3.78 4.959a1.582 1.582 0 01-1.26.623zM52.684 36.024c-.335 0-.672-.105-.959-.324l-4.959-3.78a1.583 1.583 0 011.919-2.517l4.96 3.78a1.583 1.583 0 01-.961 2.841z" fill="#189DD9"/></svg>