<svg width="80" height="80" viewBox="0 0 80 80" fill="none" xmlns="http://www.w3.org/2000/svg">
  <path d="M34.5734 6.52687C33.0871 7.68687 32.0916 9.36154 32.0916 11.246V14.4353C32.0916 15.9455 31.1058 17.326 29.4151 18.182C28.4436 18.6771 27.248 18.9722 25.9565 18.9722C20.9947 18.9722 16.9947 14.9687 16.9947 10.0069H14.9787C14.9787 14.9687 10.9734 18.9722 6.01691 18.9722V20.9927C10.9734 20.9927 14.9787 24.9873 14.9787 29.9509H16.9947C16.9947 24.9873 20.9947 20.9927 25.9565 20.9927C27.5591 20.9927 29.0534 20.6264 30.328 19.982C32.5351 18.862 34.1147 16.8291 34.1147 14.4353V11.246C34.1147 10.062 34.712 8.96776 35.8089 8.1171C36.9014 7.26821 38.4791 6.71443 40.2489 6.71443C42.0178 6.71443 43.5902 7.26821 44.6845 8.1171C45.7813 8.96776 46.3822 10.062 46.3822 11.246V15.2371H38.7956L36.1289 25.0842C28.8009 28.5509 23.0178 34.9767 21.3182 43.4593C18.5822 57.1171 26.8925 70.5891 40.336 74.2824C53.7769 77.982 67.8134 70.6682 72.4622 57.534C77.04 44.5891 70.9102 30.3847 58.4987 24.6451L55.9902 15.2371H48.3965V11.246C48.3965 9.36243 47.4071 7.68687 45.9209 6.52687C44.4285 5.37665 42.4374 4.69043 40.2489 4.69043C38.0596 4.69043 36.0631 5.37576 34.5734 6.52687ZM21.4756 19.9829C19.04 21.0851 17.0862 23.0389 15.984 25.4744C14.8818 23.0389 12.9387 21.0851 10.5031 19.9829C12.9396 18.8798 14.8818 16.9233 15.984 14.4878C17.0862 16.9269 19.04 18.8798 21.4756 19.9829ZM40.3351 17.2495H54.4427L56.7618 25.9731L57.2116 26.1678C69.04 31.3189 74.8596 44.7047 70.5591 56.8567C66.2569 69.0095 53.3094 75.7633 40.8631 72.3429C28.4249 68.9233 20.7618 56.4967 23.2951 43.8575C25.8285 31.2184 37.6934 22.6958 50.4934 24.3207L50.7396 22.3153C46.4285 21.7704 42.3538 22.5935 38.5076 23.982L40.3351 17.2495Z" fill="white" />
  <path d="M62.7956 57.5625C59.6178 63.0567 53.7485 66.4354 47.3956 66.4354V68.4576C54.4649 68.4576 61.0036 64.6816 64.5396 58.5652L62.7956 57.5625Z" fill="white" />
  <path d="M42.8267 57.5999V54.7748H40V53.321H42.8267V50.5508H40V48.6308H42.8267V38.3999H50.5067C54.7467 38.3999 57.6 40.841 57.6 44.489C57.6 47.9725 54.5867 50.5508 50.5067 50.5508H44.96V53.321H49.3867V54.7748H44.96V57.5999H42.8267ZM55.4667 44.5439C55.4667 42.0753 53.4933 40.457 50.5067 40.457H44.96V48.6308H50.5067C53.4133 48.6308 55.4667 46.9302 55.4667 44.5439Z" fill="white" />
</svg>