<svg width="99" height="99" viewBox="0 0 99 99" fill="none" xmlns="http://www.w3.org/2000/svg">
  <path d="M49.4998 94.05C48.6924 94.05 48.0382 93.3958 48.0382 92.5884C48.0382 91.7809 48.6924 91.1267 49.4998 91.1267C72.453 91.1267 91.1265 72.4528 91.1265 49.4996C91.1265 48.6922 91.7809 48.038 92.5883 48.038C93.3955 48.038 94.0499 48.6922 94.0499 49.4996C94.0497 74.0647 74.0648 94.05 49.4998 94.05Z" fill="#189DD9" />
  <path d="M6.41179 50.9614C5.60434 50.9614 4.94995 50.307 4.94995 49.4998C4.94995 24.9349 24.9349 4.94995 49.4998 4.94995C50.3073 4.94995 50.9615 5.60434 50.9615 6.41159C50.9615 7.21883 50.3071 7.87322 49.4998 7.87322C26.5466 7.87322 7.87323 26.5466 7.87323 49.4998C7.87323 50.307 7.21884 50.9614 6.41179 50.9614Z" fill="#189DD9" />
  <path d="M49.4999 87.6498C41.1469 87.6498 33.2148 84.9999 26.5616 79.9858C25.9171 79.5007 25.7886 78.5836 26.2739 77.9391C26.7607 77.2958 27.6767 77.1667 28.3212 77.652C34.463 82.28 41.7864 84.7265 49.4999 84.7265C68.9241 84.7265 84.7267 68.9239 84.7267 49.4997C84.7267 34.9651 75.9993 22.1086 62.4917 16.7458C61.7415 16.4484 61.375 15.5982 61.673 14.848C61.971 14.0983 62.821 13.7312 63.5708 14.0292C78.1983 19.8362 87.6498 33.7593 87.6498 49.4997C87.65 70.5356 70.5359 87.6498 49.4999 87.6498Z" fill="#189DD9" />
  <path d="M21.0547 74.1332C20.6304 74.1332 20.2098 73.9492 19.9207 73.5954C14.3933 66.8183 11.3495 58.2609 11.3495 49.4998C11.3495 28.4639 28.4639 11.3503 49.4996 11.3503C51.3198 11.3503 53.1501 11.48 54.9397 11.7351C55.739 11.8487 56.2946 12.5892 56.1805 13.388C56.0663 14.1879 55.3264 14.7451 54.5274 14.6286C52.8739 14.3928 51.1822 14.2736 49.4996 14.2736C30.0754 14.2736 14.2728 30.0762 14.2728 49.4998C14.2728 57.5897 17.083 65.4909 22.186 71.7479C22.6959 72.3737 22.603 73.294 21.9772 73.8045C21.7063 74.0253 21.379 74.1332 21.0547 74.1332Z" fill="#189DD9" />
  <path d="M49.4998 55.5773C46.1483 55.5773 43.422 52.8511 43.422 49.4997C43.422 46.1484 46.1483 43.4221 49.4998 43.4221C52.8514 43.4221 55.5774 46.1484 55.5774 49.4997C55.5774 52.8511 52.8514 55.5773 49.4998 55.5773ZM49.4998 46.3452C47.7602 46.3452 46.3455 47.7599 46.3455 49.4995C46.3455 51.2392 47.7602 52.6539 49.4998 52.6539C51.2394 52.6539 52.6542 51.2392 52.6542 49.4995C52.6542 47.7601 51.2394 46.3452 49.4998 46.3452Z" fill="#189DD9" />
  <path d="M49.4998 20.5552C48.6924 20.5552 48.0382 19.9008 48.0382 19.0935V12.812C48.0382 12.0047 48.6924 11.3503 49.4998 11.3503C50.3073 11.3503 50.9615 12.0047 50.9615 12.812V19.0935C50.9615 19.9008 50.3073 20.5552 49.4998 20.5552Z" fill="#189DD9" />
  <path d="M64.702 24.6288C64.4535 24.6288 64.2024 24.566 63.9722 24.4329C63.2734 24.0292 63.0336 23.1351 63.4372 22.4363L66.5778 16.9963C66.9822 16.2969 67.8779 16.0587 68.5745 16.4613C69.2734 16.865 69.513 17.7592 69.1095 18.4579L65.9686 23.8979C65.6983 24.3666 65.2067 24.6288 64.702 24.6288Z" fill="#189DD9" />
  <path d="M75.8337 35.7583C75.329 35.7583 74.8374 35.4962 74.5669 35.0275C74.1632 34.3282 74.4031 33.4346 75.1019 33.0309L80.5425 29.8902C81.2397 29.4859 82.136 29.7262 82.539 30.4252C82.9427 31.1245 82.7029 32.0181 82.004 32.4218L76.5633 35.5625C76.3332 35.6954 76.082 35.7583 75.8337 35.7583Z" fill="#189DD9" />
  <path d="M86.1881 50.9614H79.906C79.0985 50.9614 78.4443 50.307 78.4443 49.4997C78.4443 48.6923 79.0985 48.0381 79.906 48.0381H86.1881C86.9956 48.0381 87.65 48.6923 87.65 49.4997C87.65 50.307 86.9956 50.9614 86.1881 50.9614Z" fill="#189DD9" />
  <path d="M81.2718 69.3056C81.0235 69.3056 80.7723 69.2429 80.5422 69.1098L75.1016 65.9685C74.4028 65.5648 74.163 64.6709 74.5666 63.9719C74.9707 63.2726 75.8654 63.0334 76.563 63.4369L82.0036 66.5782C82.7026 66.9819 82.9422 67.8759 82.5386 68.5748C82.2684 69.0437 81.7767 69.3056 81.2718 69.3056Z" fill="#189DD9" />
  <path d="M67.8449 82.7344C67.3402 82.7344 66.8486 82.4723 66.5779 82.0036L63.4372 76.563C63.0335 75.8636 63.2735 74.9703 63.9722 74.5666C64.67 74.1634 65.5648 74.402 65.9689 75.1015L69.1098 80.5422C69.5133 81.2415 69.2737 82.1351 68.5748 82.5386C68.3445 82.6717 68.0932 82.7344 67.8449 82.7344Z" fill="#189DD9" />
  <path d="M49.4998 87.6498C48.6924 87.6498 48.0382 86.9954 48.0382 86.1881V79.906C48.0382 79.0985 48.6924 78.4443 49.4998 78.4443C50.3073 78.4443 50.9615 79.0985 50.9615 79.906V86.1881C50.9615 86.9954 50.3073 87.6498 49.4998 87.6498Z" fill="#189DD9" />
  <path d="M31.1549 82.7345C30.9064 82.7345 30.6554 82.6717 30.4251 82.5385C29.7261 82.1349 29.4866 81.2414 29.8901 80.542L33.0308 75.1014C33.4337 74.402 34.3302 74.1633 35.0274 74.5664C35.7261 74.9701 35.9659 75.8635 35.5624 76.5628L32.4217 82.0035C32.151 82.4723 31.6596 82.7345 31.1549 82.7345Z" fill="#189DD9" />
  <path d="M17.7279 69.3057C17.2232 69.3057 16.7317 69.0437 16.4611 68.5751C16.0573 67.8761 16.2973 66.9822 16.9959 66.5784L22.4365 63.4372C23.1349 63.0335 24.0294 63.2726 24.4331 63.9722C24.8367 64.6711 24.5969 65.5651 23.8981 65.9688L18.4575 69.1099C18.2274 69.2429 17.9762 69.3057 17.7279 69.3057Z" fill="#189DD9" />
  <path d="M19.0935 50.9614H12.8114C12.0039 50.9614 11.3497 50.307 11.3497 49.4997C11.3497 48.6923 12.0041 48.0381 12.8114 48.0381H19.0935C19.901 48.0381 20.5552 48.6923 20.5552 49.4997C20.5552 50.307 19.901 50.9614 19.0935 50.9614Z" fill="#189DD9" />
  <path d="M23.1659 35.7584C22.9176 35.7584 22.6664 35.6954 22.4363 35.5624L16.9957 32.4217C16.2969 32.018 16.0571 31.1244 16.4609 30.4251C16.8646 29.7261 17.7591 29.4858 18.4575 29.8901L23.8979 33.0307C24.5969 33.4345 24.8365 34.328 24.4329 35.0274C24.1623 35.4962 23.6706 35.7584 23.1659 35.7584Z" fill="#189DD9" />
  <path d="M34.2978 24.6288C33.7931 24.6288 33.3016 24.3666 33.031 23.898L29.8903 18.4579C29.4866 17.7592 29.7263 16.865 30.4253 16.4613C31.1224 16.059 32.0188 16.297 32.4219 16.9963L35.5626 22.4363C35.9663 23.1351 35.7264 24.0293 35.0276 24.433C34.7973 24.566 34.5463 24.6288 34.2978 24.6288Z" fill="#189DD9" />
  <path d="M52.4213 47.4855C52.1142 47.4855 51.7956 47.357 51.4689 47.0305C50.8981 46.4594 50.8981 45.5346 51.4689 44.9635C51.4964 44.936 51.5249 44.9099 51.554 44.8847C52.1427 44.3474 62.4373 34.6281 66.3918 30.8931C66.9783 30.3387 67.9037 30.365 68.4581 30.9519C69.0123 31.5387 68.9862 32.4638 68.3993 33.018L54.1463 46.4632C53.6431 46.935 53.0575 47.4855 52.4213 47.4855Z" fill="#189DD9" />
  <path d="M49.4998 64.5709C48.6924 64.5709 48.0382 63.9165 48.0382 63.1092V54.1157C48.0382 53.3082 48.6924 52.6541 49.4998 52.6541C50.3073 52.6541 50.9615 53.3084 50.9615 54.1157V63.1092C50.9615 63.9165 50.3073 64.5709 49.4998 64.5709Z" fill="#189DD9" />
</svg>