<svg width="80" height="80" viewBox="0 0 80 80" fill="none" xmlns="http://www.w3.org/2000/svg">
  <path fill-rule="evenodd" clip-rule="evenodd" d="M66.9671 22.4141C67.5556 22.423 68.1884 22.6595 68.7298 23.1492C69.8045 24.1306 69.9058 25.5759 69.1378 26.4506L68.3227 27.3759C67.1707 26.1644 65.9013 25.0612 64.5307 24.095L65.4471 23.0532C65.8231 22.6266 66.3742 22.4043 66.9671 22.4141ZM49.8551 21.279C62.9289 21.279 73.5129 31.8755 73.5129 44.9732C73.5129 58.071 62.9289 68.6675 49.8551 68.6675C43.7662 68.6675 39.3138 66.6764 31.2996 63.8852L32.8036 62.3768C33.68 61.4959 33.7111 60.1964 33.1698 59.2835C32.6329 58.3768 31.3689 57.807 30.1511 58.2746C26.4933 59.6861 23.8124 59.5892 21.7573 58.4452C20.1467 57.5466 18.776 55.8017 17.7858 53.4959C18.8818 53.8346 20.5573 53.8719 21.696 53.687C23.5813 53.3857 25.1733 52.6719 26.1227 51.7235C26.7564 51.0897 27.2107 50.4044 27.4222 49.6781C27.6311 48.9546 27.5653 48.1217 27.0747 47.5021C26.5787 46.8764 25.7876 46.5715 24.8756 46.5163C23.9636 46.4657 22.8756 46.6408 21.5609 47.0755C18.6249 48.0443 15.6764 47.6915 13.0196 46.0381C10.7413 44.6177 8.78311 42.4186 7.26045 39.0017C8.90845 39.599 10.3796 39.6772 11.5884 39.5164C13.3849 39.2746 14.8338 38.479 16.1956 37.6826C18.9076 36.095 21.1991 34.4417 26.0604 35.7101C26.7413 35.8852 27.3653 35.2692 27.1902 34.5839C26.7138 32.6532 25.704 31.1768 24.088 30.343C23.0276 29.7919 21.4818 29.4124 19.6898 29.3804C21.88 27.4541 24.4489 26.871 27.4036 26.4772C31 25.9955 35.1707 25.8337 38.9031 23.9812C42.6329 22.1315 46.1476 21.279 49.8551 21.279ZM48.3138 17.047H51.3973V19.4826C50.888 19.4506 50.3751 19.4266 49.856 19.4266C49.3422 19.4266 48.8284 19.4452 48.3138 19.4772V17.047ZM45.5449 11.3199H54.1609C54.6711 11.3199 55.0542 11.7057 55.0542 12.2186V14.2968C55.0542 14.8159 54.6702 15.1946 54.1609 15.1946H45.5449C45.0418 15.1946 44.656 14.8159 44.656 14.2968V12.2186C44.656 11.7057 45.0409 11.3199 45.5449 11.3199ZM45.5449 9.46924C44.0453 9.46924 42.8089 10.7146 42.8089 12.2195V14.2977C42.8089 15.8026 44.0453 17.047 45.5449 17.047H46.4667V19.6675C43.6933 20.0435 41.0133 20.8763 38.4062 22.1679C34.744 23.9866 30.8782 24.1492 27.152 24.6452C23.4293 25.1457 19.7671 26.0612 16.8933 29.687C16.3982 30.3021 16.8507 31.2097 17.6418 31.1866C20.2862 31.1208 22.096 31.3901 23.2444 31.983C23.9662 32.3572 24.4533 32.8719 24.8329 33.5812C20.1431 32.9332 17.5324 34.7661 15.264 36.0906C13.944 36.863 12.7413 37.4968 11.3467 37.6835C9.95289 37.8737 8.30134 37.6408 5.98578 36.4799C5.24089 36.1057 4.42045 36.8275 4.70223 37.6141C6.36534 42.3039 8.952 45.6843 12.0453 47.6106C15.1333 49.5315 18.7173 49.9661 22.1413 48.8372C22.9013 48.5875 23.5404 48.4444 24.0542 48.3875C26.2302 48.1563 25.9378 49.1972 24.8178 50.4159C24.3636 50.911 22.9564 51.615 21.3956 51.863C19.84 52.1181 18.1236 51.9617 16.72 51.0728C15.9982 50.6141 15.0907 51.3048 15.3404 52.1235C16.4702 55.7999 18.2338 58.5955 20.864 60.0595C23.4889 61.527 26.8453 61.527 30.8231 59.9946C31.2853 59.8177 31.4293 59.9706 31.5822 60.2346C31.7351 60.4941 31.7538 60.8132 31.4898 61.0772L28.9564 63.6283C28.48 64.1137 28.6702 64.9288 29.3138 65.151C38.3742 68.2301 42.9476 70.5226 49.8551 70.5226C63.9289 70.5226 75.3547 59.0737 75.3547 44.9759C75.3547 38.8275 73.1796 33.1803 69.5582 28.7679L70.5262 27.6746C72.008 25.9892 71.7067 23.3652 69.976 21.7866C69.1093 20.9999 68.008 20.5875 66.9333 20.5821C65.8551 20.5732 64.8133 20.9812 64.0631 21.8328L62.9716 23.0737C60.0551 21.3146 56.7627 20.1288 53.2444 19.6621V17.0506H54.1609C55.6649 17.0506 56.9058 15.8061 56.9058 14.3012V12.223C56.9058 10.719 55.6649 9.47279 54.1609 9.47279H45.5449V9.46924Z" fill="white" />
  <path fill-rule="evenodd" clip-rule="evenodd" d="M49.8551 28.2426C59.0916 28.2426 66.5591 35.7235 66.5591 44.9733C66.5591 54.2284 59.0916 61.7048 49.8551 61.7048C40.624 61.7048 33.1511 54.2284 33.1511 44.9733C33.1511 35.7235 40.624 28.2426 49.8551 28.2426ZM49.8551 26.3901C39.6231 26.3901 31.3093 34.7235 31.3093 44.9733C31.3093 55.2221 39.6231 63.5519 49.8551 63.5519C60.0916 63.5519 68.4053 55.2221 68.4053 44.9733C68.4053 34.7235 60.0916 26.3901 49.8551 26.3901Z" fill="white" />
  <path d="M49.5875 29.8018C49.0773 29.8116 48.6746 30.232 48.6835 30.7422V32.0756C48.6471 32.6071 49.0684 33.0613 49.6053 33.0613C50.1369 33.0613 50.5635 32.6071 50.5271 32.0756V30.7422C50.536 30.2196 50.1102 29.7973 49.5875 29.8018Z" fill="white" />
  <path d="M49.5875 56.9367C49.0773 56.9456 48.6746 57.366 48.6835 57.8762V59.2051C48.6471 59.742 49.0684 60.1909 49.6053 60.1909C50.1369 60.1909 50.5635 59.7411 50.5271 59.2051V57.8762C50.536 57.3527 50.1102 56.9269 49.5875 56.9367Z" fill="white" />
  <path fill-rule="evenodd" clip-rule="evenodd" d="M49.8551 43.5895C50.6329 43.5895 51.2347 44.1966 51.2347 44.9735C51.2347 45.7513 50.632 46.3575 49.8551 46.3575C49.0818 46.3575 48.4756 45.7513 48.4756 44.9735C48.4756 44.1966 49.0827 43.5895 49.8551 43.5895ZM56.1014 37.5015C55.8605 37.506 55.6285 37.6037 55.4622 37.7753L51.2027 42.0482C50.7911 41.8535 50.336 41.738 49.8551 41.738C48.0818 41.738 46.624 43.2011 46.624 44.9735C46.624 46.746 48.0818 48.2091 49.8551 48.2091C51.6329 48.2091 53.0871 46.746 53.0871 44.9735C53.0871 44.3486 52.8969 43.7691 52.5867 43.274L56.7716 39.0793C57.3698 38.4926 56.9396 37.474 56.1014 37.5015Z" fill="white" />
  <path d="M64.8 44.9831C64.7911 44.4729 64.3689 44.0649 63.8605 44.0755H62.5271C61.9929 44.0382 61.5449 44.4649 61.5449 44.9973C61.5449 45.5342 61.9938 45.9546 62.5271 45.9182H63.8605C64.3831 45.928 64.8089 45.5013 64.8 44.9831Z" fill="white" />
  <path d="M37.6658 44.9831C37.656 44.4729 37.2356 44.0649 36.7307 44.0755H35.3973C34.8658 44.0382 34.4116 44.4649 34.4116 44.9973C34.4116 45.5342 34.8658 45.9546 35.3973 45.9182H36.7307C37.248 45.928 37.6747 45.5013 37.6658 44.9831Z" fill="white" />
  <path d="M60.3591 55.7278C60.7111 55.3625 60.7013 54.7785 60.3369 54.4274L59.3973 53.4825C59.0453 53.0798 58.4258 53.0603 58.0453 53.4407C57.6711 53.8149 57.6898 54.4354 58.0915 54.7874L59.0311 55.7269C59.3973 56.1038 60 56.1038 60.3591 55.7278Z" fill="white" />
  <path d="M41.1751 36.5431C41.5271 36.1769 41.5174 35.5938 41.1511 35.2418L40.2116 34.2969C39.8605 33.8934 39.24 33.8756 38.8605 34.2551C38.4845 34.6294 38.504 35.2507 38.9067 35.6027L39.8471 36.5422C40.2116 36.9182 40.8143 36.9182 41.1751 36.5431Z" fill="white" />
  <path d="M60.3369 34.2418C59.9707 33.8898 59.3885 33.8987 59.0311 34.2649L58.0916 35.2054C57.6898 35.5574 57.6702 36.1769 58.0454 36.5565C58.4258 36.9325 59.0454 36.9129 59.3974 36.5102L60.3369 35.5654C60.7111 35.2054 60.7111 34.6036 60.3369 34.2418Z" fill="white" />
  <path d="M41.1511 53.4276C40.7858 53.0756 40.2036 53.0854 39.8462 53.4498L38.9058 54.3903C38.5031 54.7423 38.4836 55.3627 38.8596 55.7423C39.2391 56.1165 39.8596 56.0996 40.2107 55.6969L41.1502 54.7521C41.5271 54.3903 41.5271 53.7876 41.1511 53.4276Z" fill="white" />
</svg>