<svg width="80" height="80" viewBox="0 0 80 80" fill="none" xmlns="http://www.w3.org/2000/svg">
  <path d="M10.3085 19.6489V67.7013H65.6925V55.7138H69.6925V40.0293H65.6925V28.0436H18.9147V25.7049L58.0169 19.8818V24.9876H60.0311V12.2427L10.3085 19.6489ZM58.0178 14.576V17.8436L16.9014 23.9733V30.0622H63.6791V40.0293H57.0267C52.7262 40.0293 49.24 43.5485 49.24 47.8711C49.24 52.1956 52.7262 55.7129 57.0267 55.7129H63.6791V65.6818H12.3227V21.3858L58.0178 14.576ZM67.6738 42.0436V53.7049H57.0258C53.8125 53.7049 51.2534 51.1182 51.2534 47.8711C51.2534 44.6213 53.8125 42.0436 57.0258 42.0436H67.6738Z" fill="white" />
  <path d="M54.1458 47.8665C54.1458 49.7242 55.6649 51.2567 57.5209 51.2567C59.3733 51.2567 60.896 49.7233 60.896 47.8665C60.896 46.0158 59.3733 44.4878 57.5209 44.4878C55.6649 44.4878 54.1458 46.0158 54.1458 47.8665ZM58.8817 47.8656C58.8817 48.6345 58.2809 49.2425 57.5209 49.2425C56.7573 49.2425 56.16 48.6345 56.16 47.8656C56.16 47.1038 56.7573 46.5065 57.5209 46.5065C58.2809 46.5065 58.8817 47.1038 58.8817 47.8656Z" fill="white" />
</svg>