<svg width="135" height="106" viewBox="0 0 135 106" fill="none" xmlns="http://www.w3.org/2000/svg">
<path d="M0 42.6933H9.95005C13.084 42.6933 15.2182 43.056 16.357 43.7773C18.3648 45.0638 19.3686 47.0673 19.3686 49.7963C19.3686 52.5252 18.5293 54.2799 16.8463 55.4736C16.007 56.0683 14.9989 56.4606 13.8221 56.6588C12.9996 56.798 11.7764 56.8655 10.1441 56.8655H4.58487V64.4872H0V42.6891V42.6933ZM9.891 46.578H4.58065V53.0145H10.1694C12.8984 53.0145 14.2607 51.9432 14.2607 49.7963C14.2607 48.5984 13.9107 47.759 13.2063 47.274C12.5441 46.81 11.4347 46.578 9.88256 46.578H9.891Z" fill="#003A51"/>
<path d="M22.1104 48.4888H29.2133C30.8836 48.4888 32.052 48.7882 32.7142 49.3872C33.3764 49.9861 33.7096 51.0322 33.7096 52.5253V55.1952H29.6773V53.1327C29.6773 52.4494 29.5381 52.0107 29.2639 51.8125C29.0362 51.6438 28.5553 51.5594 27.8256 51.5594H26.3409V64.4915H22.1146V48.493L22.1104 48.4888Z" fill="#003A51"/>
<path d="M52.3023 56.4986C52.3023 58.9999 51.5431 61.0034 50.0204 62.5049C48.4977 64.0065 46.4352 64.7573 43.8369 64.7573C41.2387 64.7573 39.1677 64.0023 37.6324 62.4965C36.0971 60.9907 35.3252 58.9914 35.3252 56.4986C35.3252 54.0059 36.0929 51.9897 37.6324 50.4797C39.1677 48.9655 41.2387 48.2104 43.8369 48.2104C46.4352 48.2104 48.4724 48.9655 50.0035 50.4797C51.5346 51.9939 52.3023 53.9974 52.3023 56.4986ZM39.7582 56.4986C39.7582 58.0424 40.1167 59.2318 40.8338 60.0712C41.5508 60.9106 42.542 61.3324 43.8074 61.3324C45.0728 61.3324 46.0556 60.9106 46.781 60.0628C47.5065 59.215 47.8693 58.0297 47.8693 56.4944C47.8693 54.9591 47.5065 53.7739 46.7853 52.9345C46.064 52.0951 45.0686 51.6734 43.8032 51.6734C42.5378 51.6734 41.5719 52.0867 40.8507 52.9176C40.121 53.7781 39.754 54.9675 39.754 56.4902L39.7582 56.4986Z" fill="#003A51"/>
<path d="M56.3341 51.6775H53.293V48.4888H56.3341V46.8438C56.3341 45.2241 56.6336 44.1232 57.2367 43.5538C57.8399 42.9802 58.9956 42.6934 60.708 42.6934H64.7108V45.7766H62.7073C61.3745 45.7766 60.7038 46.2575 60.7038 47.215V48.4888H64.7066V51.6775H60.7038V64.4915H56.3299V51.6775H56.3341Z" fill="#003A51"/>
<path d="M85.6656 46.5781H74.3363C71.9827 46.5781 70.8059 47.5271 70.8059 49.4252C70.8059 51.0069 71.7718 51.7956 73.6994 51.7956H79.7647C82.2364 51.7956 84.0122 52.2596 85.0962 53.1875C86.1802 54.1155 86.7201 55.7098 86.7201 57.9622C86.7201 60.2146 86.1042 61.8933 84.8684 62.9309C83.6325 63.9685 81.7092 64.4873 79.0983 64.4873H66.8959V60.6026H78.3728C79.6297 60.6026 80.5239 60.4297 81.0554 60.0838C81.6375 59.7084 81.9285 59.0589 81.9285 58.1394C81.9285 57.2199 81.6628 56.5366 81.1271 56.1527C80.642 55.7984 79.828 55.617 78.6807 55.617H73.2691C70.7679 55.617 68.9331 55.1193 67.769 54.1197C66.6006 53.12 66.0186 51.5341 66.0186 49.3577C66.0186 47.0167 66.6428 45.3085 67.8871 44.2413C69.1145 43.2037 71.0421 42.6849 73.6698 42.6849H85.6656V46.5696V46.5781Z" fill="#003A51"/>
<path d="M88.1416 48.4887H91.1237V42.6891H95.35V48.4887H99.8126V51.6774H95.35V58.1435C95.35 59.2908 95.5314 60.0964 95.8983 60.5604C96.3033 61.0539 97.0287 61.3027 98.079 61.3027H99.8126V64.4915H95.9574C92.7349 64.4915 91.1237 62.8212 91.1237 59.4806V51.6817H88.1416V48.4929V48.4887Z" fill="#003A51"/>
<path d="M109.421 64.4916C104.052 64.4916 101.369 61.8258 101.369 56.4986C101.369 51.1714 104.052 48.493 109.421 48.493H115.588V51.8294H109.999C108.565 51.8294 107.582 52.0108 107.046 52.3777C106.422 52.7911 106.093 53.6136 106.051 54.841H115.588V58.1774H106.051C106.089 59.4343 106.414 60.2568 107.017 60.6533C107.523 60.9907 108.506 61.1594 109.969 61.1594H115.588V64.4958H109.421V64.4916Z" fill="#003A51"/>
<path d="M118.405 42.6934H122.632V56.1738L129.422 48.493H134.775L127.36 56.3214L134.775 64.4915H129.098L122.632 56.7221V64.4915H118.405V42.6934Z" fill="#003A51"/>
<path d="M67.4277 106L27.8047 82.7298V74.7791H31.179V80.798L67.4404 102.094L104.166 80.7938V74.7791H107.54V82.7383L67.4277 106Z" fill="#00C7C2"/>
<path d="M107.54 31.221H104.166V25.202L67.9044 3.90578L31.179 25.2062V31.221H27.8047V23.2618L67.917 0L107.54 23.2702V31.221Z" fill="#00C7C2"/>
</svg>
