<svg width="528" height="245" viewBox="0 0 528 245" fill="none" xmlns="http://www.w3.org/2000/svg">
<g clip-path="url(#clip0_1_12)">
<path d="M41.8985 113.046C41.8985 113.046 35.6217 113.378 32.5632 113.919C29.5783 114.447 22.4908 111.669 22.0855 111.509H22.0732L20.1079 105.042L0 38.9851H18.4987L37.2923 98.477L41.8985 113.046Z" fill="#393939"/>
<path d="M111.803 135.003L102.824 164.497L83.3671 228.415H57.6703L32.7351 146.511L28.1166 131.34C28.1166 131.34 34.3074 134.475 38.2135 134.598C42.1196 134.721 45.9029 134.659 46.7996 133.934C47.6962 133.221 48.1999 132.987 48.1999 132.987L51.0865 142.134L70.5187 203.642L83.7479 161.768L89.7053 142.921C89.7053 142.921 91.1425 146.265 94.3853 146.326C97.6281 146.388 106.755 143.449 111.803 135.003Z" fill="#393939"/>
<path d="M141.037 38.9851L129.786 75.9417L125.917 88.6662C125.917 88.6662 118.878 85.3713 114.874 85.7771C110.992 86.1582 105.44 93.7437 105.096 94.2109L111.619 73.5443L122.539 38.9851H141.037Z" fill="#393939"/>
<path d="M494.398 122.377C493.599 126.951 491.462 127.393 488.268 126.262C484.374 124.897 458.648 124.897 455.013 126.09C446.893 128.758 438.811 128.635 430.704 126.692C424.931 125.315 419.587 126.065 414.367 128.709C408.52 131.684 403.029 131.118 398.214 126.52C393.448 121.971 388.781 122.156 383.683 126.004C380.747 128.205 377.529 130.135 374.188 131.622C361.77 137.118 351.439 134.475 342.988 123.828C341.06 121.43 339.438 118.603 335.753 119.303C331.909 120.041 332.855 123.447 332.216 126.016C332.056 126.619 331.393 127.098 331.282 127.7C329.354 137.032 326.05 141.187 320.24 141.421C314.687 141.642 309.946 136.479 308.079 127.996C307.33 124.565 306.986 121.025 306.175 117.607C305.426 114.398 303.841 111.829 299.911 112.37C296.582 116.242 295.894 121 295.501 125.893C294.911 133.147 294.752 140.511 291.533 147.199C289.605 151.195 287.369 155.486 282.087 154.871C277.125 154.293 274.767 150.113 273.772 145.773C271.475 135.704 269.313 125.586 268.097 115.271C267.716 112.038 269.006 106.407 265.075 106.186C260.149 105.94 261.525 111.939 261.083 115.111C258.528 133.442 256.44 151.846 254.266 170.226C253.848 173.767 253.369 177.296 251.502 180.332C249.881 182.975 247.842 185.484 244.316 185.127C241.135 184.795 239.403 182.398 238.433 179.582C235.681 171.628 235.264 163.243 234.821 154.957C233.704 134.278 232.402 113.624 229.687 93.0798C229.441 91.2357 229.773 88.4572 227.058 88.6662C224.712 88.8506 225.683 91.4447 225.498 93.043C220.708 134.007 219.332 175.267 215.279 216.293C214.296 226.3 213.129 236.296 207.491 245.012H203.597C199.789 240.463 198.463 235.115 198.377 229.239C197.885 196.598 197.419 163.969 196.743 131.327C196.092 100.026 195.183 68.7495 194.409 37.4483C189.729 36.2312 190.786 40.0916 190.589 42.2677C188.268 67.9381 186.007 93.6331 183.858 119.34C182.519 135.581 181.463 151.859 180.185 168.124C179.829 172.525 178.748 176.804 176.746 180.787C175.517 183.209 174.007 185.545 170.911 185.139C168.135 184.77 166.108 182.939 165.42 180.185C164.143 175.095 162.632 169.968 162.19 164.768C160.237 141.753 158.677 118.701 156.871 95.6739C156.54 91.2849 155.803 86.9327 155.078 82.5928C154.918 81.6339 154.181 80.2692 153.42 80.0356C151.86 79.5439 151.172 81.2282 150.779 82.3347C150.066 84.4001 149.55 86.5762 149.292 88.7523C147.425 105.841 145.644 122.943 143.802 140.007C143.421 143.511 142.917 146.978 141.591 150.297C140.301 153.555 138.188 155.252 134.724 155.215C131.408 155.178 129.639 153.125 128.484 150.31C125.021 141.827 125.057 132.643 123.338 123.815C122.036 117.127 120.672 110.452 119.346 103.764C118.953 101.772 118.572 99.4851 116.115 99.5712C114.101 99.645 113.548 101.932 113.229 103.542C111.705 111.312 110.477 119.144 109.015 126.926C108.561 129.274 107.971 131.696 106.964 133.835C103.119 141.9 95.2334 142.847 89.9147 135.729C87.7283 132.803 86.3771 129.213 84.7434 125.869C81.7954 119.857 79.2895 119.058 74.3393 123.361C69.3768 127.676 64.1687 128.721 58.1376 126.274C53.9489 124.578 34.2235 125.954 30.0595 128.167C27.4456 127.295 26.3803 126.91 23.9604 125.988C22.1179 125.287 21.8068 123.221 21.7822 121.192C21.7822 120.32 24.6084 120.267 26.1387 120.32C38.7723 120.756 51.0624 116.119 57.5357 118.381C62.2525 120.041 66.0972 119.439 70.2981 116.574C79.3755 110.415 86.2788 112.837 91.2413 123.004C92.8013 126.225 93.2558 132.114 96.7197 131.856C101.129 131.536 99.9993 125.549 101.093 122.008C103.647 113.833 104.692 105.251 107.603 97.1369C109.359 92.2315 112.369 89.2809 117.528 89.1826C123.006 89.1088 124.652 93.1782 125.831 97.6902C129.013 109.874 130.032 122.426 132.292 134.757C132.698 136.958 132.231 140.487 135.388 140.339C138.041 140.216 137.537 136.897 137.746 134.856C139.822 115.357 141.861 95.8706 143.802 76.3597C144.17 72.6099 144.723 68.9462 145.927 65.3809C147.364 61.1762 149.256 57.5371 154.451 57.9306C160.016 58.3363 161.392 62.5778 161.944 67.1513C162.927 75.2409 163.75 83.3551 164.475 91.457C166.305 111.865 168.037 132.286 169.879 152.695C170.039 154.502 169.241 157.551 171.771 157.612C174.694 157.711 174.24 154.428 174.4 152.449C175.591 136.847 176.586 121.234 177.79 105.645C179.067 89.0227 180.504 72.4132 181.868 55.8036C183.047 41.5669 184.509 27.3547 185.295 13.1057C185.602 7.41344 186.929 2.92604 191.903 0.0122986H195.797C198.856 2.33591 200.846 5.24965 200.833 9.29446C202.688 20.8757 201.681 32.5798 201.89 44.2102C202.713 89.3793 202.922 134.573 203.462 179.767C203.536 185.914 204.297 192.049 204.776 198.208C204.899 199.72 204.862 201.896 206.643 201.933C208.854 201.995 208.818 199.769 208.953 197.999C211.029 173.656 213.338 149.338 215.18 124.971C216.507 107.181 218.853 89.5022 219.394 71.6264C219.553 66.5611 219.86 59.16 226.972 58.8403C233.863 58.5207 234.735 65.5038 236.087 70.6797C239.182 82.4945 238.531 94.7519 239.501 106.8C240.902 124.332 243.518 141.839 242.572 159.53C242.449 161.903 243.125 164.473 245.533 164.423C248.001 164.374 248.468 161.362 248.677 159.284C249.783 148.109 250.556 136.897 251.686 125.721C252.485 117.828 253.455 109.948 254.683 102.128C255.949 94.1494 260.37 88.1744 264.915 88.5678C272.334 89.2072 273.268 96.0182 274.902 101.354C277.592 110.206 278.28 119.5 278.931 128.745C279.25 133.331 279.25 138.015 282.063 142.331C285.195 139.687 284.814 135.987 285.306 132.729C286.411 125.537 287.308 118.308 290.526 111.681C292.713 107.169 295.439 103.296 301.188 103.653C305.61 104.329 307.711 107.796 309.492 111.3C311.776 115.8 313.373 120.57 314.528 125.524C315.142 128.143 315.437 131.856 319.122 131.782C322.328 131.721 323.495 128.586 324.477 125.893C325.435 123.213 326.086 120.41 327.057 117.73C330.042 109.468 337.105 107.267 343.713 112.812C349.548 117.705 354.94 123.029 362.752 124.787C368.587 126.102 373.341 124.848 377.713 120.889C389.137 110.513 390.279 110.415 403.201 119.586C406.37 121.836 409.65 122.881 412.758 120.508C419.465 115.419 427.142 116.07 434.561 116.586C443.233 117.189 451.794 117.127 460.417 116.009C463.144 115.652 487.789 116.291 490.578 116.451C494.594 116.673 495.036 118.357 494.349 122.414L494.398 122.377Z" fill="url(#paint0_linear_1_12)"/>
<path d="M329.648 38.9851V39.1818C328.002 39.0466 326.958 38.9851 326.958 38.9851H329.648Z" fill="#393939"/>
<path d="M373.574 84.1173C373.574 84.3263 373.537 84.523 373.512 84.732C373.525 84.8304 373.537 84.9288 373.537 85.0271C372.96 98.9565 365.847 111.214 355.161 118.898C349.24 115.812 342.767 109.517 342.767 109.517C344.13 108.521 345.408 107.403 346.575 106.198C348.209 104.514 349.658 102.645 350.862 100.616C353.564 96.0919 355.124 90.7931 355.124 85.1255C355.124 76.3351 351.365 68.4176 345.383 62.8974C344.499 62.0737 343.553 61.3115 342.571 60.5984C342.571 60.5984 342.546 60.5861 342.509 60.5615C341.833 60.1927 336.294 57.2052 329.648 56.2217H273.563V88.6539C273.563 88.6539 269.521 84.3263 264.915 83.9698C260.309 83.601 255.629 88.1744 255.629 88.1744V38.9851H326.958C326.958 38.9851 327.106 38.9851 327.376 39.0097H327.401C327.855 39.0466 328.641 39.0958 329.648 39.1818C333.112 39.4892 339.254 40.1899 344.008 41.5792C344.044 41.5915 344.081 41.6038 344.118 41.6161C361.303 47.7878 373.586 64.0531 373.586 83.1584C373.586 83.478 373.586 83.7977 373.574 84.1173Z" fill="#393939"/>
<path opacity="0.33" d="M362.42 184.229C362.138 185.336 361.868 186.295 361.61 187.069C361.585 187.082 361.573 187.094 361.548 187.082C361.843 186.123 362.126 185.164 362.42 184.229Z" fill="#961D1D"/>
<path opacity="0.33" d="M380.538 192.86C379.31 198.835 376.325 204.159 372.161 208.302C376.08 203.04 378.315 197.249 380.538 192.86Z" fill="#961D1D"/>
<path d="M362.42 184.229C362.138 185.336 361.868 186.295 361.61 187.069C361.438 187.598 361.278 188.053 361.143 188.422" fill="#961D1D"/>
<path d="M384.837 172.845C384.837 173.115 384.837 173.386 384.825 173.644C384.801 171.763 384.678 169.894 384.457 168.062C384.715 169.612 384.837 171.222 384.837 172.845Z" fill="#393939"/>
<path d="M528 38.9851V54.9799H447.556V110.845C439.339 114.755 429.623 110.845 429.623 110.845V38.9851H528Z" fill="#393939"/>
<path d="M528 212.42V228.415H429.623V133.7C429.623 133.7 433.971 136.048 437.816 135.802C439.781 135.679 444.866 134.302 447.556 132.495V212.42H528Z" fill="#393939"/>
<path opacity="0.2" d="M384.444 167.964C384.408 167.743 384.371 167.534 384.334 167.325V167.177C384.383 167.436 384.42 167.706 384.444 167.964Z" fill="#BD1818"/>
<path d="M323.556 228.415C306.556 228.415 267.642 228.415 257.938 228.403C257.041 228.378 256.255 228.378 255.85 227.616C255.076 217.264 255.641 192.159 255.629 181.709C257.164 170.829 260.53 153.555 261.857 142.478C262.09 140.573 262.323 138.397 263.073 136.811C264.841 133.848 266.991 144.74 268.674 147.949C270.357 152.559 273.71 156.506 273.501 161.559C273.661 172.661 273.243 201.441 273.661 209.371C274.042 210.822 274.963 210.613 276.633 210.736C282.787 210.761 302.011 210.736 313.496 210.736C325.337 210.527 335.115 211.412 345.641 206.31C363.489 196.856 366.179 172.796 362.285 155.24C361.29 151.502 359.509 148.17 357.568 144.703C355.873 141.421 353.65 138.802 356.807 139.196C360.566 139.946 364.975 139.921 368.292 137.708C369.545 136.995 370.564 136.245 371.817 135.79C377.627 133.676 380.477 147.912 381.926 151.748C393.116 189.725 370.92 226.891 330.238 228.415" fill="#393939"/>
</g>
<defs>
<linearGradient id="paint0_linear_1_12" x1="27.0099" y1="122.936" x2="497.505" y2="122.501" gradientUnits="userSpaceOnUse">
<stop stop-color="white"/>
<stop offset="0.08" stop-color="#E5087E"/>
<stop offset="0.29" stop-color="#7260A7"/>
<stop offset="0.42" stop-color="#189DD9"/>
<stop offset="0.73" stop-color="#AD2886"/>
<stop offset="0.91" stop-color="#AC2B87"/>
<stop offset="1" stop-color="white"/>
</linearGradient>
<clipPath id="clip0_1_12">
<rect width="528" height="245" fill="white"/>
</clipPath>
</defs>
</svg>
