<svg width="170" height="79" viewBox="0 0 170 79" fill="none" xmlns="http://www.w3.org/2000/svg">
<path d="M13.4877 36.4472C13.4877 36.4472 11.4671 36.5542 10.4825 36.7286C9.52164 36.8991 7.24009 36.0032 7.1096 35.9516H7.10565L6.47298 33.8664L1.52588e-05 12.5664H5.95498L12.0049 31.7495L13.4877 36.4472Z" fill="white"/>
<path d="M35.991 43.5271L33.1005 53.0373L26.8371 73.6476H18.565L10.538 47.2376L9.05124 42.3457C9.05124 42.3457 11.0441 43.3566 12.3016 43.3962C13.559 43.4359 14.7769 43.4161 15.0655 43.1822C15.3542 42.9522 15.5163 42.8769 15.5163 42.8769L16.4455 45.8263L22.701 65.6596L26.9596 52.1573L28.8774 46.08C28.8774 46.08 29.34 47.1583 30.3839 47.1781C31.4278 47.198 34.3658 46.2505 35.991 43.5271Z" fill="white"/>
<path d="M45.4018 12.5664L41.7798 24.483L40.5343 28.586C40.5343 28.586 38.2685 27.5236 36.9795 27.6544C35.73 27.7773 33.9427 30.2233 33.832 30.3739L35.9316 23.71L39.4469 12.5664H45.4018Z" fill="white"/>
<path d="M159.153 39.4564C158.896 40.9311 158.208 41.0738 157.18 40.7091C155.926 40.2691 147.645 40.2691 146.474 40.6536C143.861 41.5138 141.259 41.4742 138.649 40.8479C136.79 40.4039 135.07 40.6457 133.39 41.498C131.508 42.4573 129.74 42.275 128.19 40.7924C126.656 39.3256 125.153 39.385 123.512 40.6259C122.567 41.3355 121.531 41.9578 120.456 42.4375C116.458 44.2095 113.133 43.3572 110.412 39.9242C109.791 39.1511 109.269 38.2394 108.083 38.4653C106.846 38.7032 107.15 39.8013 106.944 40.6298C106.893 40.8241 106.68 40.9787 106.644 41.1729C106.023 44.1818 104.959 45.5217 103.089 45.597C101.302 45.6684 99.7755 44.0034 99.1745 41.2681C98.9333 40.162 98.8226 39.0203 98.5616 37.9183C98.3204 36.8836 97.8103 36.055 96.545 36.2295C95.4734 37.4782 95.252 39.0124 95.1255 40.5902C94.9357 42.9291 94.8842 45.3037 93.8483 47.4603C93.2274 48.7486 92.5078 50.1322 90.8075 49.934C89.21 49.7476 88.4508 48.3998 88.1305 47.0004C87.3911 43.7537 86.6952 40.4911 86.3037 37.165C86.1811 36.1224 86.5963 34.3068 85.331 34.2354C83.7454 34.1562 84.1882 36.0907 84.0459 37.1135C83.2234 43.0242 82.5513 48.9588 81.8514 54.8853C81.7169 56.0271 81.5627 57.1648 80.9617 58.144C80.4398 58.9963 79.7834 59.805 78.6486 59.69C77.6244 59.583 77.0669 58.81 76.7545 57.9021C75.8688 55.3373 75.7343 52.6336 75.592 49.9617C75.2322 43.2938 74.813 36.6338 73.9391 30.0095C73.8601 29.4149 73.9668 28.519 73.093 28.5864C72.3377 28.6458 72.6501 29.4823 72.5908 29.9976C71.0487 43.2066 70.6058 56.5107 69.3009 69.7395C68.9846 72.9664 68.6089 76.1893 66.794 79H65.5405C64.3147 77.5332 63.8877 75.8088 63.86 73.9138C63.7018 63.3887 63.5516 52.8675 63.3341 42.3424C63.1245 32.2493 62.8319 22.1642 62.5828 12.0712C61.0763 11.6787 61.4163 12.9235 61.353 13.6252C60.6057 21.9026 59.8781 30.1879 59.1862 38.4772C58.7552 43.714 58.4151 48.9627 58.0039 54.2074C57.8892 55.6267 57.5412 57.0062 56.8967 58.2906C56.5013 59.0716 56.0149 59.8248 55.0185 59.694C54.1248 59.5751 53.4724 58.9844 53.251 58.0964C52.8397 56.4552 52.3534 54.8021 52.211 53.1252C51.5823 45.7041 51.0801 38.2711 50.4989 30.846C50.3921 29.4307 50.1549 28.0274 49.9216 26.628C49.8702 26.3188 49.6329 25.8788 49.3877 25.8034C48.8856 25.6449 48.6641 26.188 48.5376 26.5448C48.3083 27.2108 48.1422 27.9124 48.0591 28.6141C47.4581 34.1244 46.8848 39.6387 46.2916 45.1412C46.1691 46.271 46.0069 47.3889 45.5799 48.4593C45.1647 49.5098 44.4846 50.0569 43.3695 50.045C42.3019 50.0331 41.7325 49.371 41.3608 48.4632C40.2457 45.7279 40.2576 42.7666 39.704 39.9202C39.2849 37.7636 38.846 35.611 38.4189 33.4545C38.2924 32.8123 38.1698 32.0749 37.379 32.1027C36.7305 32.1265 36.5525 32.8638 36.4497 33.3831C35.9594 35.8885 35.564 38.4138 35.0935 40.9232C34.9472 41.6803 34.7574 42.4613 34.4331 43.1511C33.1955 45.7517 30.6569 46.0569 28.9447 43.7616C28.2409 42.8181 27.8059 41.6605 27.28 40.5822C26.331 38.6437 25.5243 38.386 23.9308 39.7735C22.3333 41.165 20.6568 41.502 18.7153 40.7131C17.3669 40.166 11.017 40.6099 9.67659 41.3234C8.83515 41.0423 8.49221 40.9179 7.71324 40.6206C7.12012 40.3946 7.01996 39.7284 7.01205 39.0743C7.01205 38.7932 7.92183 38.7762 8.41444 38.7932C12.4814 38.9338 16.4377 37.4386 18.5215 38.168C20.0399 38.7032 21.2776 38.5089 22.6299 37.5853C25.552 35.5992 27.7743 36.3801 29.3718 39.6586C29.874 40.6972 30.0203 42.5961 31.1353 42.5128C32.5549 42.4098 32.1911 40.4792 32.543 39.3375C33.3655 36.7012 33.7016 33.9342 34.6387 31.3177C35.2042 29.736 36.1729 28.7846 37.8337 28.7529C39.5972 28.7291 40.1271 30.0412 40.5067 31.4961C41.5308 35.4247 41.859 39.4722 42.5866 43.4484C42.7171 44.158 42.5668 45.2958 43.583 45.2482C44.4371 45.2085 44.275 44.1382 44.3422 43.4801C45.0105 37.1928 45.6669 30.9094 46.2916 24.6181C46.4103 23.409 46.5882 22.2277 46.9757 21.078C47.4383 19.7222 48.0473 18.5488 49.7199 18.6757C51.5111 18.8065 51.954 20.1742 52.1319 21.6489C52.4483 24.2574 52.7132 26.8738 52.9465 29.4862C53.5357 36.0669 54.0932 42.6516 54.6863 49.2323C54.7377 49.815 54.4807 50.7982 55.2953 50.818C56.2364 50.8497 56.09 49.7912 56.1415 49.153C56.525 44.1223 56.8453 39.0877 57.2328 34.061C57.644 28.7013 58.1067 23.3456 58.5456 17.9899C58.9252 13.3992 59.3957 8.81654 59.6488 4.22195C59.7477 2.38649 60.1747 0.939532 61.7761 0H63.0296C64.0142 0.749247 64.6548 1.68878 64.6508 2.99302C65.2479 6.72737 64.9237 10.5014 64.9909 14.2516C65.2558 28.8163 65.323 43.389 65.497 57.9616C65.5207 59.9437 65.7659 61.9219 65.9201 63.908C65.9597 64.3956 65.9478 65.0973 66.5211 65.1092C67.2329 65.129 67.221 64.4115 67.2645 63.8406C67.9328 55.9914 68.6762 48.15 69.2693 40.2929C69.6963 34.5565 70.4516 28.8559 70.6256 23.0919C70.677 21.4586 70.7758 19.0721 73.0653 18.969C75.2836 18.866 75.5643 21.1177 75.9993 22.7866C76.9957 26.5963 76.7861 30.5487 77.0985 34.4337C77.5493 40.0867 78.3915 45.7318 78.0871 51.4364C78.0475 52.2015 78.265 53.0301 79.04 53.0142C79.8348 52.9983 79.985 52.0271 80.0523 51.3571C80.4081 47.7536 80.6572 44.1382 81.021 40.5347C81.278 37.9896 81.5904 35.4485 81.9858 32.9272C82.3931 30.3544 83.8165 28.4278 85.2796 28.5546C87.6679 28.7608 87.9684 30.957 88.4943 32.6775C89.3603 35.5318 89.5817 38.5288 89.7913 41.5099C89.8941 42.9886 89.8941 44.4989 90.7996 45.8904C91.8079 45.0381 91.6853 43.8448 91.8435 42.7943C92.1994 40.4752 92.488 38.1442 93.524 36.0075C94.2279 34.5526 95.1057 33.3038 96.9562 33.4188C98.3797 33.6368 99.0559 34.7548 99.6292 35.8846C100.365 37.3355 100.879 38.8736 101.25 40.4712C101.448 41.3156 101.543 42.5128 102.729 42.4891C103.761 42.4692 104.137 41.4583 104.453 40.5902C104.762 39.726 104.971 38.8221 105.284 37.9579C106.245 35.2939 108.518 34.5843 110.646 36.3722C112.524 37.95 114.26 39.6665 116.774 40.2334C118.653 40.6576 120.183 40.2532 121.591 38.9767C125.268 35.6309 125.636 35.5992 129.796 38.5565C130.816 39.282 131.871 39.6189 132.872 38.8538C135.031 37.2126 137.502 37.4227 139.891 37.5892C142.682 37.7835 145.438 37.7636 148.214 37.4029C149.092 37.2879 157.025 37.4941 157.923 37.5456C159.216 37.617 159.358 38.1601 159.137 39.4683L159.153 39.4564Z" fill="url(#paint0_linear_1_268)"/>
<path d="M106.118 12.5664V12.6298C105.588 12.5862 105.252 12.5664 105.252 12.5664H106.118Z" fill="white"/>
<path d="M120.258 27.1192C120.258 27.1866 120.246 27.2501 120.238 27.3175C120.242 27.3492 120.246 27.3809 120.246 27.4126C120.06 31.9041 117.771 35.8565 114.331 38.3342C112.425 37.3391 110.341 35.3094 110.341 35.3094C110.78 34.9883 111.191 34.6276 111.567 34.2391C112.093 33.696 112.559 33.0934 112.947 32.4393C113.817 30.9804 114.319 29.2718 114.319 27.4443C114.319 24.6099 113.109 22.0569 111.183 20.2769C110.899 20.0113 110.594 19.7655 110.278 19.5356C110.278 19.5356 110.27 19.5316 110.258 19.5237C110.041 19.4048 108.257 18.4415 106.118 18.1243H88.0633V28.5821C88.0633 28.5821 86.7624 27.1866 85.2796 27.0717C83.7968 26.9527 82.2902 28.4275 82.2902 28.4275V12.5664H105.252C105.252 12.5664 105.299 12.5664 105.386 12.5743H105.394C105.541 12.5862 105.794 12.6021 106.118 12.6298C107.233 12.7289 109.21 12.9549 110.74 13.4029C110.752 13.4068 110.764 13.4108 110.776 13.4148C116.308 15.4048 120.262 20.6496 120.262 26.81C120.262 26.9131 120.262 27.0162 120.258 27.1192Z" fill="white"/>
<path opacity="0.33" d="M116.668 59.4004C116.577 59.7572 116.49 60.0664 116.407 60.3161C116.399 60.3201 116.395 60.3241 116.387 60.3201C116.482 60.0109 116.573 59.7017 116.668 59.4004Z" fill="#961D1D"/>
<path opacity="0.33" d="M122.5 62.1836C122.105 64.1102 121.144 65.8268 119.803 67.1627C121.065 65.466 121.784 63.5988 122.5 62.1836Z" fill="#961D1D"/>
<path d="M116.668 59.4004C116.577 59.7572 116.49 60.0664 116.407 60.3161C116.351 60.4866 116.3 60.6333 116.256 60.7522" fill="#961D1D"/>
<path d="M123.884 55.7296C123.884 55.8168 123.884 55.904 123.88 55.9873C123.872 55.3807 123.832 54.7782 123.761 54.1875C123.844 54.687 123.884 55.2063 123.884 55.7296Z" fill="white"/>
<path d="M169.97 12.5664V17.7239H144.074V35.7376C141.429 36.9982 138.301 35.7376 138.301 35.7376V12.5664H169.97Z" fill="white"/>
<path d="M169.97 68.4905V73.648H138.301V43.1072C138.301 43.1072 139.701 43.8644 140.938 43.7851C141.571 43.7455 143.208 43.3015 144.074 42.7188V68.4905H169.97Z" fill="white"/>
<path opacity="0.2" d="M123.757 54.1556C123.746 54.0842 123.734 54.0168 123.722 53.9494V53.9019C123.738 53.9851 123.75 54.0723 123.757 54.1556Z" fill="#BD1818"/>
<path d="M104.157 73.6479C98.6841 73.6479 86.1573 73.6479 83.0335 73.6439C82.7449 73.636 82.4918 73.636 82.3613 73.3902C82.1122 70.0523 82.2941 61.9573 82.2901 58.5876C82.7844 55.0793 83.8678 49.5094 84.2949 45.9376C84.37 45.3232 84.4451 44.6215 84.6864 44.1101C85.2558 43.1547 85.9477 46.6671 86.4895 47.7017C87.0312 49.1883 88.1107 50.4609 88.0434 52.0902C88.0948 55.6699 87.9604 64.9503 88.0948 67.5072C88.2174 67.975 88.514 67.9076 89.0518 67.9473C91.0328 67.9552 97.2211 67.9473 100.918 67.9473C104.73 67.8799 107.878 68.1653 111.266 66.5201C117.012 63.4716 117.878 55.7135 116.624 50.0526C116.304 48.8474 115.73 47.7731 115.106 46.6552C114.56 45.5967 113.844 44.7523 114.861 44.8792C116.071 45.121 117.49 45.1131 118.558 44.3995C118.961 44.1696 119.289 43.9278 119.693 43.7811C121.563 43.0992 122.48 47.6898 122.947 48.9267C126.549 61.1723 119.404 73.1563 106.308 73.6479" fill="white"/>
<defs>
<linearGradient id="paint0_linear_1_268" x1="8.69492" y1="39.6366" x2="160.153" y2="39.4967" gradientUnits="userSpaceOnUse">
<stop stop-color="white"/>
<stop offset="0.08" stop-color="#E5087E"/>
<stop offset="0.29" stop-color="#7260A7"/>
<stop offset="0.42" stop-color="#189DD9"/>
<stop offset="0.73" stop-color="#AD2886"/>
<stop offset="0.91" stop-color="#AC2B87"/>
<stop offset="1" stop-color="white"/>
</linearGradient>
</defs>
</svg>
